<svg width="217" height="59" viewBox="0 0 217 59" fill="none" xmlns="http://www.w3.org/2000/svg">
<path d="M31.226 0C24.6447 0 19.529 2.74027e-07 15.5466 0.453862C11.5188 0.916801 8.32899 1.87596 5.78393 4.0424C3.17069 6.26934 1.94929 9.16498 1.37267 12.8171C0.824463 16.3027 0.824463 20.7385 0.824463 26.2695V26.8232C0.824463 32.2151 0.824463 35.9458 1.39256 38.7265C1.69933 40.2243 2.18221 41.5253 2.94062 42.7296C3.6905 43.9157 4.6449 44.9142 5.78393 45.8824C7.57627 47.4104 9.68958 48.3332 12.1864 48.9081V56.7327C12.1867 57.1303 12.2851 57.5208 12.4717 57.8651C12.6582 58.2095 12.9265 58.4956 13.2495 58.6947C13.5726 58.8939 13.939 58.9992 14.3123 59C14.6855 59.0008 15.0524 58.8972 15.3762 58.6994C17.0407 57.6858 18.5149 56.5814 19.8642 55.5406L20.7277 54.8719C21.6885 54.1057 22.6698 53.3691 23.6704 52.6631C26.0678 51.005 28.3572 49.9248 31.3596 49.9248H31.4931C38.0744 49.9248 43.1901 49.9248 47.1725 49.4709C51.2003 49.008 54.3901 48.0488 56.9352 45.8824C58.0714 44.9142 59.0286 43.9157 59.7756 42.7296C60.5369 41.5253 61.0198 40.2243 61.3265 38.7265C61.8946 35.9458 61.8946 32.2151 61.8946 26.8232V26.2695C61.8946 20.7385 61.8946 16.3027 61.3464 12.8201C60.7698 9.16498 59.5484 6.26934 56.9352 4.0424C54.3901 1.87294 51.2003 0.916801 47.1725 0.456888C43.1901 4.56711e-08 38.0744 0 31.4931 0H31.226Z" fill="#18B1FF"/>
<path d="M24.0926 17.9606L23.7406 18.4446L23.7406 29.6207L29.2846 22.0526L43.0126 22.0526C44.5673 22.0526 45.8873 22.5953 46.9727 23.6806C48.058 24.766 48.6007 26.086 48.6007 27.6406L48.6007 31.7327C48.6007 33.082 48.1753 34.27 47.3247 35.2967L44.3766 38.8167C43.0566 40.43 41.3406 41.2367 39.2286 41.2367L15.0285 41.2367L15.0285 33.7567L42.3966 33.7567L42.3966 28.7846L26.2926 28.7846L23.7406 31.6447L15.0285 31.6447L15.0285 29.5766C15.0285 28.1686 15.4392 26.8926 16.2605 25.7486L25.5446 13.1206C26.1312 12.2992 26.8792 11.6539 27.7886 11.1846C28.7272 10.7152 29.7099 10.4806 30.7366 10.4806L48.6007 10.4806L48.6007 17.9606L24.0926 17.9606Z" fill="#4CC3FF"/>
<path d="M25.4114 19.3115L25.1235 19.7074L25.1235 28.8487L29.6582 22.6585L40.887 22.6585C42.1586 22.6585 43.2383 23.1024 44.126 23.9901C45.0138 24.8779 45.4577 25.9576 45.4577 27.2292L45.4577 30.5762C45.4577 31.6799 45.1098 32.6516 44.414 33.4914L42.0026 36.3706C40.923 37.6902 39.5194 38.35 37.7919 38.35L17.9976 38.35L17.9976 32.2318L40.3831 32.2318L40.3831 28.1649L27.2109 28.1649L25.1235 30.5043L17.9976 30.5043L17.9976 28.8127C17.9976 27.6611 18.3335 26.6174 19.0053 25.6816L26.5991 15.3526C27.079 14.6808 27.6908 14.153 28.4346 13.7691C29.2023 13.3852 30.0061 13.1932 30.8459 13.1932L45.4577 13.1932L45.4577 19.3115L25.4114 19.3115Z" fill="white"/>
<path d="M81.3053 43.0413C78.0351 43.0413 75.4978 42.3083 73.6936 40.8423C71.9119 39.3764 71.0098 37.2789 70.9872 34.55H75.4866C75.5091 36.264 76.0166 37.4932 77.0089 38.2374C78.0238 38.9817 79.501 39.3538 81.4406 39.3538C83.0193 39.3538 84.2259 39.0606 85.0604 38.4743C85.8949 37.8653 86.3121 36.997 86.3121 35.8694C86.3121 34.9221 85.9512 34.2004 85.2295 33.7043C84.5304 33.2081 83.2449 32.7683 81.373 32.3849L79.3432 31.9789C74.1785 31.0091 71.5961 28.5734 71.5961 24.6717C71.5961 22.5968 72.3855 20.9504 73.9642 19.7326C75.543 18.4921 77.7306 17.8719 80.5272 17.8719C83.7072 17.8719 86.1091 18.5485 87.733 19.9017C89.3793 21.2549 90.2476 23.1494 90.3378 25.5851H85.9061C85.8159 24.2094 85.3536 23.1945 84.5191 22.5404C83.7072 21.8864 82.3991 21.5594 80.5949 21.5594C79.1966 21.5594 78.1253 21.8187 77.381 22.3374C76.6368 22.8562 76.2647 23.5892 76.2647 24.5364C76.2647 25.5062 76.603 26.2504 77.2795 26.7691C77.9787 27.2879 79.2078 27.7277 80.967 28.0885L83.0644 28.4945C85.8836 29.0583 87.9134 29.904 89.1538 31.0317C90.4168 32.1368 91.0483 33.6704 91.0483 35.6326C91.0483 37.9781 90.1912 39.8049 88.4772 41.113C86.7632 42.3985 84.3725 43.0413 81.3053 43.0413ZM109.463 34.0764V35.0913H96.4042C96.5621 36.5798 97.0244 37.7074 97.7912 38.4743C98.5806 39.2185 99.6293 39.5906 100.937 39.5906C102.877 39.5906 104.208 38.7562 104.929 37.0872H109.023C108.572 38.8689 107.624 40.2898 106.181 41.3498C104.738 42.3872 102.978 42.906 100.904 42.906C98.31 42.906 96.2125 42.0715 94.6112 40.4026C93.01 38.7336 92.2093 36.5234 92.2093 33.7719C92.2093 31.0204 92.9987 28.8102 94.5774 27.1413C96.1787 25.4723 98.2649 24.6379 100.836 24.6379C103.475 24.6379 105.572 25.5062 107.128 27.2428C108.684 28.9794 109.463 31.2572 109.463 34.0764ZM100.802 27.9532C98.2987 27.9532 96.844 29.3402 96.438 32.1143H105.2C105.02 30.8287 104.546 29.8138 103.779 29.0696C103.012 28.3253 102.02 27.9532 100.802 27.9532ZM120.774 24.6379C122.668 24.6379 124.157 25.1904 125.239 26.2955C126.344 27.3781 126.897 28.923 126.897 30.9302V42.5H122.634V31.6406C122.634 29.4304 121.541 28.3253 119.353 28.3253C118.27 28.3253 117.346 28.72 116.579 29.5094C115.835 30.2762 115.463 31.3474 115.463 32.7232V42.5H111.2V25.0438H115.327V27.5472C116.658 25.6077 118.473 24.6379 120.774 24.6379ZM141.796 27.3104V18.4132H146.058V42.5H141.931V40.0643C140.646 41.9587 138.808 42.906 136.417 42.906C134.004 42.906 132.098 42.0715 130.7 40.4026C129.279 38.7336 128.568 36.5234 128.568 33.7719C128.568 30.9753 129.279 28.7538 130.7 27.1074C132.075 25.4611 133.981 24.6379 136.417 24.6379C138.762 24.6379 140.555 25.5287 141.796 27.3104ZM132.932 33.9072C132.932 35.7115 133.327 37.076 134.116 38.0006C134.906 38.9253 136 39.3877 137.398 39.3877C138.796 39.3877 139.901 38.9028 140.713 37.933C141.503 36.9632 141.897 35.5762 141.897 33.7719C141.897 31.9677 141.503 30.5806 140.713 29.6109C139.924 28.6411 138.819 28.1562 137.398 28.1562C136.022 28.1562 134.928 28.6636 134.116 29.6785C133.327 30.6934 132.932 32.103 132.932 33.9072Z" fill="black"/>
<path d="M164.655 24.7055V18.4132H169.053V42.5H163.978L157.28 31.776C155.453 28.9117 154.021 26.4985 152.983 24.5364C153.074 27.0623 153.119 30.9528 153.119 36.2077V42.5H148.721V18.4132H153.795L160.528 29.1372C162.535 32.3849 163.956 34.7981 164.79 36.3768C164.7 33.0164 164.655 29.126 164.655 24.7055ZM188.668 33.7719C188.668 36.5234 187.856 38.7336 186.232 40.4026C184.608 42.0715 182.466 42.906 179.804 42.906C177.143 42.906 175.001 42.0715 173.377 40.4026C171.73 38.7562 170.907 36.546 170.907 33.7719C170.907 30.9979 171.73 28.7877 173.377 27.1413C175.001 25.4723 177.143 24.6379 179.804 24.6379C182.466 24.6379 184.608 25.4611 186.232 27.1074C187.856 28.7538 188.668 30.9753 188.668 33.7719ZM176.455 37.933C177.267 38.9028 178.384 39.3877 179.804 39.3877C181.225 39.3877 182.33 38.9028 183.12 37.933C183.932 36.9406 184.338 35.5536 184.338 33.7719C184.338 31.9902 183.932 30.6145 183.12 29.6447C182.33 28.6523 181.225 28.1562 179.804 28.1562C178.384 28.1562 177.267 28.6411 176.455 29.6109C175.666 30.5806 175.271 31.9677 175.271 33.7719C175.271 35.5762 175.666 36.9632 176.455 37.933ZM209.023 31.573L210.985 25.0438H215.552L209.801 42.5H205.335L203.136 35.3281C202.302 32.3962 201.806 30.6596 201.648 30.1183C201.58 30.3664 201.095 32.103 200.193 35.3281L198.028 42.5H193.563L187.811 25.0438H192.379L194.341 31.573C194.837 33.1291 195.412 35.1477 196.066 37.6285C196.697 35.1251 197.25 33.0953 197.724 31.5391L199.652 25.0438H203.711L205.64 31.5391C206.113 33.0953 206.666 35.1251 207.297 37.6285C207.884 35.3957 208.459 33.3772 209.023 31.573Z" fill="#18B1FF"/>
</svg>
